SourceCode-ExtraLightItalic.ufo
<glyph name="numbersign" format="2">
	<unicode hex="0023"/>
	<advance width="600"/>
	<outline>
		<contour>
			<point x="92" y="0" type="line"/>
			<point x="120" y="0" type="line"/>
			<point x="322" y="650" type="line"/>
			<point x="294" y="650" type="line"/>
		</contour>
		<contour>
			<point x="286" y="0" type="line"/>
			<point x="314" y="0" type="line"/>
			<point x="516" y="650" type="line"/>
			<point x="488" y="650" type="line"/>
		</contour>
		<contour>
			<point x="138" y="424" type="line"/>
			<point x="528" y="424" type="line"/>
			<point x="536" y="452" type="line"/>
			<point x="146" y="452" type="line"/>
		</contour>
		<contour>
			<point x="78" y="218" type="line"/>
			<point x="468" y="218" type="line"/>
			<point x="476" y="246" type="line"/>
			<point x="86" y="246" type="line"/>
		</contour>
	</outline>
</glyph>
<glyph name="two" format="2">
	<unicode hex="0032"/>
	<advance width="600"/>
	<outline>
		<contour>
			<point x="52" y="0" type="line"/>
			<point x="482" y="0" type="line"/>
			<point x="486" y="26" type="line"/>
			<point x="214" y="26" type="line" smooth="yes"/>
			<point x="172" y="26"/>
			<point x="148" y="26"/>
			<point x="96" y="22" type="curve"/>
			<point x="354" y="240"/>
			<point x="492" y="358"/>
			<point x="492" y="504" type="curve" smooth="yes"/>
			<point x="492" y="594"/>
			<point x="438" y="652"/>
			<point x="342" y="652" type="curve" smooth="yes"/>
			<point x="252" y="652"/>
			<point x="180" y="606"/>
			<point x="126" y="549" type="curve"/>
			<point x="146" y="530" type="line"/>
			<point x="195" y="583"/>
			<point x="261" y="626"/>
			<point x="334" y="626" type="curve" smooth="yes"/>
			<point x="426" y="626"/>
			<point x="464" y="578"/>
			<point x="464" y="502" type="curve" smooth="yes"/>
			<point x="464" y="372"/>
			<point x="344" y="266"/>
			<point x="54" y="20" type="curve"/>
		</contour>
	</outline>
</glyph>
<glyph name="A" format="2">
	<unicode hex="0041"/>
	<advance width="600"/>
	<outline>
		<contour>
			<point x="-8" y="0" type="line"/>
			<point x="24" y="0" type="line"/>
			<point x="248" y="400" type="line" smooth="yes"/>
			<point x="290" y="478"/>
			<point x="328" y="548"/>
			<point x="372" y="627" type="curve"/>
			<point x="377" y="627" type="line"/>
			<point x="387" y="553"/>
			<point x="396" y="471"/>
			<point x="406" y="396" type="curve" smooth="yes"/>
			<point x="458" y="0" type="line"/>
			<point x="488" y="0" type="line"/>
			<point x="396" y="660" type="line"/>
			<point x="366" y="660" type="line"/>
		</contour>
		<contour>
			<point x="150" y="238" type="line"/>
			<point x="437" y="238" type="line"/>
			<point x="438" y="264" type="line"/>
			<point x="158" y="264" type="line"/>
		</contour>
	</outline>
	<anchor name="aboveUC" x="374" y="680"/>
	<anchor name="baseLC" x="474" y="0"/>
	<anchor name="belowLC" x="250" y="-20"/>
	<anchor name="ogonekCXT-ATH" x="254" y="0"/>
	<anchor name="ogonekUC" x="458" y="0"/>
</glyph>
<glyph name="E" format="2">
  <advance width="600"/>
  <unicode hex="0045"/>
  <anchor x="418" y="680" name="aboveUC"/>
  <anchor x="300" y="0" name="baseLC"/>
  <anchor x="290" y="-20" name="belowLC"/>
  <anchor x="294" y="0" name="ogonekLC"/>
  <anchor x="410" y="0" name="ogonekUC"/>
  <outline>
    <contour>
      <point x="78" y="0" type="line"/>
      <point x="472" y="0" type="line"/>
      <point x="478" y="26" type="line"/>
      <point x="112" y="26" type="line"/>
      <point x="176" y="338" type="line"/>
      <point x="472" y="338" type="line"/>
      <point x="478" y="364" type="line"/>
      <point x="180" y="364" type="line"/>
      <point x="234" y="634" type="line"/>
      <point x="590" y="634" type="line"/>
      <point x="596" y="660" type="line"/>
      <point x="210" y="660" type="line"/>
    </contour>
  </outline>
</glyph>
<glyph name="I" format="2">
	<unicode hex="0049"/>
	<advance width="600"/>
	<outline>
		<contour>
			<point x="50" y="0" type="line"/>
			<point x="424" y="0" type="line"/>
			<point x="430" y="26" type="line"/>
			<point x="256" y="26" type="line"/>
			<point x="378" y="634" type="line"/>
			<point x="552" y="634" type="line"/>
			<point x="558" y="660" type="line"/>
			<point x="182" y="660" type="line"/>
			<point x="176" y="634" type="line"/>
			<point x="348" y="634" type="line"/>
			<point x="226" y="26" type="line"/>
			<point x="56" y="26" type="line"/>
		</contour>
	</outline>
	<anchor name="aboveUC" x="374" y="680"/>
	<anchor name="baseLC" x="238" y="0"/>
	<anchor name="belowLC" x="234" y="-20"/>
	<anchor name="ogonekUC" x="238" y="0"/>
</glyph>
<glyph name="T" format="2">
	<unicode hex="0054"/>
	<advance width="600"/>
	<outline>
		<contour>
			<point x="222" y="0" type="line"/>
			<point x="252" y="0" type="line"/>
			<point x="378" y="632" type="line"/>
			<point x="612" y="632" type="line"/>
			<point x="618" y="660" type="line"/>
			<point x="120" y="660" type="line"/>
			<point x="114" y="632" type="line"/>
			<point x="348" y="632" type="line"/>
		</contour>
	</outline>
	<anchor name="aboveUC" x="374" y="680"/>
	<anchor name="baseLC" x="238" y="0"/>
	<anchor name="belowLC" x="234" y="-20"/>
</glyph>
<glyph name="asciicircum" format="2">
	<unicode hex="005E"/>
	<advance width="600"/>
	<outline>
		<contour>
			<point x="133" y="292" type="line"/>
			<point x="163" y="292" type="line"/>
			<point x="246" y="508" type="line"/>
			<point x="298" y="639" type="line"/>
			<point x="302" y="639" type="line"/>
			<point x="354" y="508" type="line"/>
			<point x="437" y="292" type="line"/>
			<point x="467" y="292" type="line"/>
			<point x="317" y="670" type="line"/>
			<point x="283" y="670" type="line"/>
		</contour>
	</outline>
</glyph>
<glyph name="f" format="2">
	<unicode hex="0066"/>
	<advance width="600"/>
	<outline>
		<contour>
			<point x="190" y="0" type="line"/>
			<point x="218" y="0" type="line"/>
			<point x="330" y="554" type="line" smooth="yes"/>
			<point x="352" y="664"/>
			<point x="412" y="708"/>
			<point x="494" y="708" type="curve" smooth="yes"/>
			<point x="536" y="708"/>
			<point x="573" y="692"/>
			<point x="604" y="666" type="curve"/>
			<point x="622" y="686" type="line"/>
			<point x="588" y="716"/>
			<point x="542" y="734"/>
			<point x="496" y="734" type="curve" smooth="yes"/>
			<point x="401" y="734"/>
			<point x="328" y="687"/>
			<point x="302" y="558" type="curve" smooth="yes"/>
		</contour>
		<contour>
			<point x="136" y="452" type="line"/>
			<point x="538" y="452" type="line"/>
			<point x="544" y="478" type="line"/>
			<point x="286" y="478" type="line"/>
			<point x="140" y="474" type="line"/>
		</contour>
	</outline>
	<anchor name="aboveUC" x="476" y="740"/>
	<anchor name="baseLC" x="200" y="0"/>
	<anchor name="belowLC" x="210" y="-20"/>
</glyph>
<glyph name="u" format="2">
  <advance width="600"/>
  <unicode hex="0075"/>
  <anchor x="338" y="500" name="aboveLC"/>
  <anchor x="426" y="0" name="baseLC"/>
  <anchor x="250" y="-20" name="belowLC"/>
  <anchor x="254" y="0" name="ogonekCXT-ATH"/>
  <anchor x="408" y="0" name="ogonekLC"/>
  <outline>
    <contour>
      <point x="193" y="-12" type="curve" smooth="yes"/>
      <point x="292" y="-12"/>
      <point x="364" y="46"/>
      <point x="430" y="110" type="curve"/>
      <point x="434" y="110" type="line"/>
      <point x="416" y="0" type="line"/>
      <point x="440" y="0" type="line"/>
      <point x="536" y="478" type="line"/>
      <point x="508" y="478" type="line"/>
      <point x="442" y="154" type="line"/>
      <point x="360" y="68"/>
      <point x="280" y="14"/>
      <point x="196" y="14" type="curve" smooth="yes"/>
      <point x="132" y="14"/>
      <point x="98" y="48"/>
      <point x="98" y="108" type="curve" smooth="yes"/>
      <point x="98" y="136"/>
      <point x="102" y="160"/>
      <point x="108" y="190" type="curve" smooth="yes"/>
      <point x="166" y="478" type="line"/>
      <point x="138" y="478" type="line"/>
      <point x="80" y="188" type="line" smooth="yes"/>
      <point x="74" y="160"/>
      <point x="70" y="136"/>
      <point x="70" y="104" type="curve" smooth="yes"/>
      <point x="70" y="38"/>
      <point x="104" y="-12"/>
    </contour>
  </outline>
</glyph>
<glyph name="z" format="2">
	<unicode hex="007A"/>
	<advance width="600"/>
	<outline>
		<contour>
			<point x="44" y="0" type="line"/>
			<point x="458" y="0" type="line"/>
			<point x="464" y="26" type="line"/>
			<point x="90" y="26" type="line"/>
			<point x="520" y="460" type="line"/>
			<point x="522" y="478" type="line"/>
			<point x="130" y="478" type="line"/>
			<point x="124" y="452" type="line"/>
			<point x="476" y="452" type="line"/>
			<point x="46" y="18" type="line"/>
		</contour>
	</outline>
	<anchor name="aboveLC" x="330" y="500"/>
	<anchor name="baseLC" x="290" y="0"/>
	<anchor name="belowLC" x="260" y="-20"/>
</glyph>
<glyph name="Eth" format="2">
	<unicode hex="00D0"/>
	<advance width="600"/>
	<outline>
		<contour>
			<point x="298" y="338" type="line"/>
			<point x="304" y="364" type="line"/>
			<point x="104" y="364" type="line"/>
			<point x="24" y="362" type="line"/>
			<point x="18" y="338" type="line"/>
		</contour>
		<component base="D"/>
	</outline>
	<anchor name="aboveUC" x="360" y="680"/>
	<anchor name="belowLC" x="220" y="-20"/>
</glyph>
<glyph name="multiply" format="2">
	<unicode hex="00D7"/>
	<advance width="600"/>
	<outline>
		<contour>
			<point x="136" y="138" type="line"/>
			<point x="300" y="311" type="line"/>
			<point x="464" y="138" type="line"/>
			<point x="483" y="160" type="line"/>
			<point x="319" y="330" type="line"/>
			<point x="483" y="500" type="line"/>
			<point x="464" y="522" type="line"/>
			<point x="300" y="349" type="line"/>
			<point x="136" y="522" type="line"/>
			<point x="117" y="500" type="line"/>
			<point x="281" y="330" type="line"/>
			<point x="117" y="160" type="line"/>
		</contour>
	</outline>
</glyph>
<glyph name="lslash" format="2">
	<unicode hex="0142"/>
	<advance width="600"/>
	<outline>
		<contour>
			<point x="128" y="306" type="line"/>
			<point x="274" y="382" type="line"/>
			<point x="287" y="388" type="line"/>
			<point x="496" y="498" type="line"/>
			<point x="486" y="520" type="line"/>
			<point x="294" y="420" type="line"/>
			<point x="280" y="414" type="line"/>
			<point x="118" y="328" type="line"/>
		</contour>
		<component base="l"/>
	</outline>
	<anchor name="aboveUC" x="344" y="740"/>
	<anchor name="belowLC" x="330" y="-20"/>
</glyph>
<glyph name="Eng" format="2">
	<unicode hex="014A"/>
	<advance width="600"/>
	<outline>
		<contour>
			<point x="322" y="-12" type="curve" smooth="yes"/>
			<point x="454" y="-12"/>
			<point x="550" y="216"/>
			<point x="550" y="456" type="curve" smooth="yes"/>
			<point x="550" y="609"/>
			<point x="478" y="672"/>
			<point x="372" y="672" type="curve" smooth="yes"/>
			<point x="316" y="672"/>
			<point x="230" y="630"/>
			<point x="178" y="580" type="curve"/>
			<point x="194" y="660" type="line"/>
			<point x="164" y="660" type="line"/>
			<point x="32" y="0" type="line"/>
			<point x="62" y="0" type="line"/>
			<point x="170" y="542" type="line"/>
			<point x="236" y="610"/>
			<point x="320" y="646"/>
			<point x="370" y="646" type="curve" smooth="yes"/>
			<point x="459" y="646"/>
			<point x="520" y="597"/>
			<point x="520" y="450" type="curve" smooth="yes"/>
			<point x="520" y="236"/>
			<point x="430" y="14"/>
			<point x="324" y="14" type="curve" smooth="yes"/>
			<point x="300" y="14"/>
			<point x="284" y="20"/>
			<point x="267" y="30" type="curve"/>
			<point x="252" y="6" type="line"/>
			<point x="270" y="-4"/>
			<point x="300" y="-12"/>
		</contour>
	</outline>
	<anchor name="aboveUC" x="380" y="680"/>
	<anchor name="belowLC" x="234" y="-20"/>
</glyph>
<glyph name="Tbar" format="2">
	<unicode hex="0166"/>
	<advance width="600"/>
	<outline>
		<contour>
			<point x="158" y="362" type="line"/>
			<point x="457" y="362" type="line"/>
			<point x="462" y="386" type="line"/>
			<point x="240" y="386" type="line"/>
			<point x="162" y="382" type="line"/>
		</contour>
		<component base="T"/>
	</outline>
	<anchor name="aboveUC" x="374" y="680"/>
	<anchor name="belowLC" x="234" y="-20"/>
</glyph>
<glyph name="aringacute" format="2">
  <advance width="600"/>
  <unicode hex="01FB"/>
  <outline>
    <contour>
      <point x="366" y="704" type="line"/>
      <point x="500" y="786" type="line"/>
      <point x="484" y="812" type="line"/>
      <point x="354" y="722" type="line"/>
    </contour>
    <component base="aring"/>
  </outline>
</glyph>
<glyph name="rsmallinverted" format="2">
	<unicode hex="0281"/>
	<advance width="600"/>
	<outline>
		<contour>
			<point x="92" y="0" type="line"/>
			<point x="292" y="0" type="line" smooth="yes"/>
			<point x="406" y="0"/>
			<point x="476" y="64"/>
			<point x="476" y="154" type="curve" smooth="yes"/>
			<point x="476" y="232"/>
			<point x="422" y="262"/>
			<point x="336" y="262" type="curve" smooth="yes"/>
			<point x="174" y="262" type="line"/>
			<point x="216" y="478" type="line"/>
			<point x="188" y="478" type="line"/>
		</contour>
		<contour>
			<point x="126" y="26" type="line"/>
			<point x="168" y="236" type="line"/>
			<point x="320" y="236" type="line" smooth="yes"/>
			<point x="398" y="236"/>
			<point x="448" y="212"/>
			<point x="448" y="148" type="curve" smooth="yes"/>
			<point x="448" y="80"/>
			<point x="388" y="26"/>
			<point x="280" y="26" type="curve" smooth="yes"/>
		</contour>
		<contour>
			<point x="360" y="248" type="line"/>
			<point x="558" y="478" type="line"/>
			<point x="526" y="478" type="line"/>
			<point x="338" y="260" type="line"/>
		</contour>
	</outline>
	<anchor name="aboveLC" x="380" y="500"/>
	<anchor name="belowLC" x="260" y="-20"/>
</glyph>
<glyph name="colontriangularmod" format="2">
	<unicode hex="02D0"/>
	<advance width="600"/>
	<outline>
		<contour>
			<point x="182" y="0" type="line"/>
			<point x="296" y="0" type="line"/>
			<point x="266" y="104" type="line"/>
			<point x="258" y="104" type="line"/>
		</contour>
		<contour>
			<point x="304" y="374" type="line"/>
			<point x="312" y="374" type="line"/>
			<point x="388" y="478" type="line"/>
			<point x="274" y="478" type="line"/>
		</contour>
	</outline>
</glyph>
<glyph name="gravecmb" format="2">
	<unicode hex="0300"/>
	<advance width="600"/>
	<outline>
		<contour>
			<point x="390" y="570" type="line"/>
			<point x="410" y="584" type="line"/>
			<point x="302" y="748" type="line"/>
			<point x="276" y="730" type="line"/>
		</contour>
	</outline>
	<anchor name="_aboveLC" x="338" y="500"/>
	<anchor name="aboveLC" x="300" y="500"/>
</glyph>
<glyph name="circumflexcmb" format="2">
	<unicode hex="0302"/>
	<advance width="600"/>
	<outline>
		<contour>
			<point x="242" y="574" type="line"/>
			<point x="378" y="706" type="line"/>
			<point x="382" y="706" type="line"/>
			<point x="468" y="574" type="line"/>
			<point x="488" y="588" type="line"/>
			<point x="396" y="736" type="line"/>
			<point x="368" y="736" type="line"/>
			<point x="224" y="590" type="line"/>
		</contour>
	</outline>
	<anchor name="_aboveLC" x="338" y="500"/>
	<anchor name="aboveLC" x="384" y="728"/>
</glyph>
<glyph name="leftangleabovecmb" format="2">
	<unicode hex="031A"/>
	<advance width="600"/>
	<outline>
		<contour>
			<point x="457" y="572" type="line"/>
			<point x="485" y="572" type="line"/>
			<point x="511" y="706" type="line"/>
			<point x="371" y="706" type="line"/>
			<point x="366" y="678" type="line"/>
			<point x="478" y="678" type="line"/>
		</contour>
	</outline>
	<anchor name="_aboverightLC" x="398" y="500"/>
</glyph>
<glyph name="emdash" format="2">
	<unicode hex="2014"/>
	<advance width="600"/>
	<outline>
		<contour>
			<point x="-16" y="232" type="line"/>
			<point x="584" y="232" type="line"/>
			<point x="592" y="270" type="line"/>
			<point x="-8" y="270" type="line"/>
		</contour>
	</outline>
</glyph>
<glyph name="guilsinglright" format="2">
	<unicode hex="203A"/>
	<advance width="600"/>
	<outline>
		<contour>
			<point x="181" y="72" type="line"/>
			<point x="351" y="236" type="line"/>
			<point x="356" y="262" type="line"/>
			<point x="249" y="430" type="line"/>
			<point x="228" y="417" type="line"/>
			<point x="320" y="252" type="line"/>
			<point x="165" y="89" type="line"/>
		</contour>
	</outline>
</glyph>
<glyph name="overline" format="2">
	<unicode hex="203E"/>
	<advance width="600"/>
	<outline>
		<contour>
			<point x="124" y="570" type="line"/>
			<point x="582" y="570" type="line"/>
			<point x="588" y="602" type="line"/>
			<point x="130" y="602" type="line"/>
		</contour>
	</outline>
</glyph>
<glyph name="tenge" format="2">
	<unicode hex="20B8"/>
	<advance width="600"/>
	<outline>
		<contour>
			<point x="228" y="0" type="line"/>
			<point x="258" y="0" type="line"/>
			<point x="359" y="504" type="line"/>
			<point x="543" y="504" type="line"/>
			<point x="548" y="532" type="line"/>
			<point x="214" y="532" type="line"/>
			<point x="148" y="528" type="line"/>
			<point x="143" y="504" type="line"/>
			<point x="329" y="504" type="line"/>
		</contour>
		<contour>
			<point x="164" y="612" type="line"/>
			<point x="564" y="612" type="line"/>
			<point x="570" y="640" type="line"/>
			<point x="170" y="640" type="line"/>
		</contour>
	</outline>
</glyph>
<glyph name="trademark" format="2">
	<unicode hex="2122"/>
	<advance width="600"/>
	<outline>
		<contour>
			<point x="132" y="370" type="line"/>
			<point x="160" y="370" type="line"/>
			<point x="218" y="660" type="line"/>
			<point x="190" y="660" type="line"/>
		</contour>
		<contour>
			<point x="326" y="370" type="line"/>
			<point x="355" y="370" type="line"/>
			<point x="389" y="542" type="line"/>
			<point x="404" y="638" type="line"/>
			<point x="408" y="638" type="line"/>
			<point x="451" y="418" type="line"/>
			<point x="480" y="418" type="line"/>
			<point x="611" y="638" type="line"/>
			<point x="615" y="638" type="line"/>
			<point x="592" y="542" type="line"/>
			<point x="558" y="370" type="line"/>
			<point x="586" y="370" type="line"/>
			<point x="647" y="676" type="line"/>
			<point x="604" y="676" type="line"/>
			<point x="525" y="545" type="line"/>
			<point x="475" y="457" type="line"/>
			<point x="471" y="457" type="line"/>
			<point x="457" y="545" type="line"/>
			<point x="428" y="676" type="line"/>
			<point x="387" y="676" type="line"/>
		</contour>
		<contour>
			<point x="76" y="651" type="line"/>
			<point x="326" y="651" type="line"/>
			<point x="332" y="676" type="line"/>
			<point x="82" y="676" type="line"/>
		</contour>
	</outline>
</glyph>
<glyph name="arrowboth" format="2">
	<unicode hex="2194"/>
	<advance width="600"/>
	<outline>
		<contour>
			<point x="612" y="254" type="line"/>
			<point x="434" y="458" type="line"/>
			<point x="415" y="438" type="line"/>
			<point x="570" y="265" type="line"/>
			<point x="30" y="265" type="line"/>
			<point x="185" y="438" type="line"/>
			<point x="166" y="458" type="line"/>
			<point x="-12" y="254" type="line"/>
			<point x="-12" y="250" type="line"/>
			<point x="166" y="46" type="line"/>
			<point x="185" y="66" type="line"/>
			<point x="30" y="239" type="line"/>
			<point x="570" y="239" type="line"/>
			<point x="415" y="66" type="line"/>
			<point x="434" y="46" type="line"/>
			<point x="612" y="250" type="line"/>
		</contour>
	</outline>
</glyph>
<glyph name="summation" format="2">
	<unicode hex="2211"/>
	<advance width="600"/>
	<outline>
		<contour>
			<point x="70" y="-120" type="line"/>
			<point x="533" y="-120" type="line"/>
			<point x="533" y="-94" type="line"/>
			<point x="109" y="-94" type="line"/>
			<point x="109" y="-90" type="line"/>
			<point x="371" y="262" type="line"/>
			<point x="121" y="610" type="line"/>
			<point x="120" y="614" type="line"/>
			<point x="501" y="614" type="line"/>
			<point x="501" y="640" type="line"/>
			<point x="82" y="640" type="line"/>
			<point x="82" y="616" type="line"/>
			<point x="335" y="260" type="line"/>
			<point x="70" y="-95" type="line"/>
		</contour>
	</outline>
</glyph>
<glyph name="triangleupblack" format="2">
	<unicode hex="25B2"/>
	<advance width="600"/>
	<outline>
		<contour>
			<point x="60" y="108" type="line"/>
			<point x="540" y="108" type="line"/>
			<point x="540" y="110" type="line"/>
			<point x="301" y="612" type="line"/>
			<point x="299" y="612" type="line"/>
			<point x="60" y="110" type="line"/>
		</contour>
	</outline>
</glyph>
<glyph name="diamondblack" format="2">
	<unicode hex="25C6"/>
	<advance width="600"/>
	<outline>
		<contour>
			<point x="300" y="90" type="line"/>
			<point x="560" y="350" type="line"/>
			<point x="300" y="610" type="line"/>
			<point x="40" y="350" type="line"/>
		</contour>
	</outline>
</glyph>
<glyph name="circumflexacutecmb.cap" format="2">
	<advance width="600"/>
	<outline>
		<contour>
			<point x="284" y="710" type="line"/>
			<point x="394" y="778" type="line"/>
			<point x="398" y="778" type="line"/>
			<point x="476" y="710" type="line"/>
			<point x="492" y="724" type="line"/>
			<point x="412" y="808" type="line"/>
			<point x="384" y="808" type="line"/>
			<point x="272" y="726" type="line"/>
		</contour>
		<contour>
			<point x="486" y="772" type="line"/>
			<point x="602" y="854" type="line"/>
			<point x="584" y="878" type="line"/>
			<point x="472" y="790" type="line"/>
		</contour>
	</outline>
	<anchor name="_aboveUC" x="374" y="680"/>
</glyph>
<glyph name="circumflextildecmb.cap" format="2">
	<advance width="600"/>
	<outline>
		<contour>
			<point x="284" y="710" type="line"/>
			<point x="394" y="778" type="line"/>
			<point x="398" y="778" type="line"/>
			<point x="476" y="710" type="line"/>
			<point x="492" y="724" type="line"/>
			<point x="412" y="808" type="line"/>
			<point x="384" y="808" type="line"/>
			<point x="272" y="726" type="line"/>
		</contour>
		<contour>
			<point x="472" y="840" type="curve" smooth="yes"/>
			<point x="526" y="840"/>
			<point x="546" y="884"/>
			<point x="554" y="916" type="curve"/>
			<point x="530" y="918" type="line"/>
			<point x="520" y="887"/>
			<point x="506" y="866"/>
			<point x="478" y="866" type="curve" smooth="yes"/>
			<point x="426" y="866"/>
			<point x="416" y="920"/>
			<point x="346" y="920" type="curve" smooth="yes"/>
			<point x="292" y="920"/>
			<point x="272" y="876"/>
			<point x="266" y="844" type="curve"/>
			<point x="288" y="842" type="line"/>
			<point x="298" y="873"/>
			<point x="312" y="894"/>
			<point x="340" y="894" type="curve" smooth="yes"/>
			<point x="392" y="894"/>
			<point x="402" y="840"/>
		</contour>
	</outline>
	<anchor name="_aboveUC" x="374" y="680"/>
</glyph>
<glyph name="lcat" format="2">
	<advance width="600"/>
	<outline>
		<contour>
			<point x="134" y="-12" type="curve" smooth="yes"/>
			<point x="174" y="-12"/>
			<point x="210" y="0"/>
			<point x="245" y="20" type="curve"/>
			<point x="234" y="44" type="line"/>
			<point x="200" y="24"/>
			<point x="170" y="14"/>
			<point x="138" y="14" type="curve" smooth="yes"/>
			<point x="90" y="14"/>
			<point x="62" y="40"/>
			<point x="62" y="100" type="curve" smooth="yes"/>
			<point x="62" y="114"/>
			<point x="64" y="132"/>
			<point x="68" y="150" type="curve" smooth="yes"/>
			<point x="182" y="722" type="line"/>
			<point x="-2" y="722" type="line"/>
			<point x="-8" y="696" type="line"/>
			<point x="150" y="696" type="line"/>
			<point x="38" y="142" type="line" smooth="yes"/>
			<point x="34" y="124"/>
			<point x="32" y="110"/>
			<point x="32" y="96" type="curve" smooth="yes"/>
			<point x="32" y="22"/>
			<point x="76" y="-12"/>
		</contour>
		<contour>
			<point x="239" y="294" type="curve" smooth="yes"/>
			<point x="271" y="294"/>
			<point x="301" y="328"/>
			<point x="301" y="362" type="curve" smooth="yes"/>
			<point x="301" y="390"/>
			<point x="285" y="408"/>
			<point x="259" y="408" type="curve" smooth="yes"/>
			<point x="227" y="408"/>
			<point x="197" y="374"/>
			<point x="197" y="340" type="curve" smooth="yes"/>
			<point x="197" y="312"/>
			<point x="213" y="294"/>
		</contour>
		<contour>
			<point x="440" y="-12" type="curve" smooth="yes"/>
			<point x="480" y="-12"/>
			<point x="516" y="0"/>
			<point x="551" y="20" type="curve"/>
			<point x="540" y="44" type="line"/>
			<point x="506" y="24"/>
			<point x="476" y="14"/>
			<point x="444" y="14" type="curve" smooth="yes"/>
			<point x="396" y="14"/>
			<point x="368" y="40"/>
			<point x="368" y="100" type="curve" smooth="yes"/>
			<point x="368" y="114"/>
			<point x="370" y="132"/>
			<point x="374" y="150" type="curve" smooth="yes"/>
			<point x="488" y="722" type="line"/>
			<point x="304" y="722" type="line"/>
			<point x="298" y="696" type="line"/>
			<point x="456" y="696" type="line"/>
			<point x="344" y="142" type="line" smooth="yes"/>
			<point x="340" y="124"/>
			<point x="338" y="110"/>
			<point x="338" y="96" type="curve" smooth="yes"/>
			<point x="338" y="22"/>
			<point x="382" y="-12"/>
		</contour>
	</outline>
</glyph>
<glyph name="macronacutecmb" format="2">
	<advance width="600"/>
	<outline>
		<contour>
			<point x="244" y="608" type="line"/>
			<point x="476" y="608" type="line"/>
			<point x="480" y="634" type="line"/>
			<point x="248" y="634" type="line"/>
		</contour>
		<contour>
			<point x="372" y="702" type="line"/>
			<point x="480" y="789" type="line"/>
			<point x="460" y="811" type="line"/>
			<point x="357" y="719" type="line"/>
		</contour>
	</outline>
	<anchor name="_aboveLC" x="338" y="500"/>
</glyph>
<glyph name="ogonekcmb.cap" format="2">
	<advance width="600"/>
	<outline>
		<contour>
			<point x="212" y="-224" type="curve" smooth="yes"/>
			<point x="244" y="-224"/>
			<point x="268" y="-212"/>
			<point x="286" y="-196" type="curve"/>
			<point x="274" y="-178" type="line"/>
			<point x="258" y="-190"/>
			<point x="240" y="-198"/>
			<point x="218" y="-198" type="curve" smooth="yes"/>
			<point x="182" y="-198"/>
			<point x="154" y="-182"/>
			<point x="154" y="-144" type="curve" smooth="yes"/>
			<point x="154" y="-96"/>
			<point x="205" y="-43"/>
			<point x="284" y="4" type="curve"/>
			<point x="246" y="4" type="line"/>
			<point x="182" y="-32"/>
			<point x="126" y="-90"/>
			<point x="126" y="-152" type="curve" smooth="yes"/>
			<point x="126" y="-204"/>
			<point x="169" y="-224"/>
		</contour>
	</outline>
	<anchor name="_ogonekUC" x="240" y="0"/>
</glyph>
<glyph name="parenleft.dnom" format="2">
	<advance width="600"/>
	<outline>
		<contour>
			<point x="286" y="-64" type="curve"/>
			<point x="308" y="-45" type="line"/>
			<point x="271" y="-6"/>
			<point x="250" y="50"/>
			<point x="250" y="105" type="curve" smooth="yes"/>
			<point x="250" y="206"/>
			<point x="303" y="296"/>
			<point x="384" y="353" type="curve"/>
			<point x="368" y="374" type="line"/>
			<point x="270" y="302"/>
			<point x="220" y="210"/>
			<point x="220" y="106" type="curve" smooth="yes"/>
			<point x="220" y="38"/>
			<point x="248" y="-23"/>
		</contour>
	</outline>
</glyph>
<glyph name="seven.cap" format="2">
	<advance width="600"/>
	<outline>
		<contour>
			<point x="175" y="0" type="curve"/>
			<point x="211" y="0" type="line"/>
			<point x="274" y="266"/>
			<point x="356" y="436"/>
			<point x="570" y="641" type="curve"/>
			<point x="574" y="660" type="line"/>
			<point x="135" y="660" type="line"/>
			<point x="130" y="634" type="line"/>
			<point x="538" y="634" type="line"/>
			<point x="532" y="637" type="line"/>
			<point x="336" y="450"/>
			<point x="246" y="282"/>
		</contour>
	</outline>
</glyph>
